<svg xmlns="http://www.w3.org/2000/svg" width="900" height="900" viewBox="0 0 900 900" fill="none">
  <defs>
    <linearGradient id="flower" x1="0" y1="0" x2="1" y2="1">
      <stop offset="0%" stop-color="#f2d3b7"/>
      <stop offset="100%" stop-color="#c59275"/>
    </linearGradient>
  </defs>
  <rect width="900" height="900" rx="60" fill="#f8f2ea"/>
  <circle cx="450" cy="500" r="180" fill="#fff9f0"/>
  <path d="M420 280C420 240 480 240 480 280C540 280 540 340 480 340C480 400 420 400 420 340C360 340 360 280 420 280Z" fill="url(#flower)"/>
  <path d="M450 340C430 340 410 360 410 380C410 400 430 420 450 420C470 420 490 400 490 380C490 360 470 340 450 340Z" fill="#f7e1d1"/>
  <path d="M350 440C330 460 340 500 375 520C410 540 450 530 470 500C490 470 490 430 470 400C450 370 420 360 395 370C370 380 360 420 350 440Z" fill="#d9b08f"/>
  <text x="80" y="820" font-family="Inter, sans-serif" font-size="60" font-weight="700" fill="#7c5e34">Hoa cúc</text>
</svg>
