<svg xmlns="http://www.w3.org/2000/svg" width="900" height="900" viewBox="0 0 900 900" fill="none">
  <defs>
    <linearGradient id="cup" x1="0" y1="0" x2="1" y2="1">
      <stop offset="0%" stop-color="#e3b98f"/>
      <stop offset="100%" stop-color="#d18b52"/>
    </linearGradient>
    <linearGradient id="tea" x1="0" y1="0" x2="0" y2="1">
      <stop offset="0%" stop-color="#f7e1b9"/>
      <stop offset="100%" stop-color="#caa16e"/>
    </linearGradient>
  </defs>
  <rect width="900" height="900" rx="60" fill="#f9f3ea"/>
  <path d="M260 620C260 520 340 460 450 460C560 460 640 520 640 620V700H260V620Z" fill="url(#cup)"/>
  <path d="M300 280C280 280 260 310 260 345V470H640V345C640 310 620 280 600 280H300Z" fill="#f5c38e"/>
  <path d="M300 300C320 250 430 240 520 300C610 360 610 440 520 500C430 560 320 550 300 500V300Z" fill="url(#tea)"/>
  <circle cx="380" cy="345" r="24" fill="#7c5e34"/>
  <path d="M460 380C465 370 475 365 485 368C495 372 500 382 498 392C495 402 486 408 476 406C466 404 458 395 460 380Z" fill="#7c5e34"/>
  <text x="80" y="820" font-family="Inter, sans-serif" font-size="60" font-weight="700" fill="#7c5e34">Gạo lứt</text>
</svg>
