<svg xmlns="http://www.w3.org/2000/svg" width="900" height="900" viewBox="0 0 900 900" fill="none">
  <defs>
    <linearGradient id="syrup" x1="0" y1="0" x2="1" y2="1">
      <stop offset="0%" stop-color="#d7b384"/>
      <stop offset="100%" stop-color="#8a5a2e"/>
    </linearGradient>
  </defs>
  <rect width="900" height="900" rx="60" fill="#f5efea"/>
  <path d="M220 660C220 560 320 490 450 490C580 490 680 560 680 660V740H220V660Z" fill="#fff3e8"/>
  <path d="M300 620C320 500 430 460 520 510C610 560 610 640 520 690C430 740 320 700 300 620Z" fill="url(#syrup)"/>
  <path d="M420 140C380 120 320 140 300 180C280 220 300 260 340 280C380 300 440 290 460 250C480 210 460 160 420 140Z" fill="#b77b3e"/>
  <line x1="320" y1="220" x2="380" y2="260" stroke="#fff" stroke-width="16" stroke-linecap="round"/>
  <text x="80" y="820" font-family="Inter, sans-serif" font-size="60" font-weight="700" fill="#7c5e34">Hồng sâm</text>
</svg>
