<svg xmlns="http://www.w3.org/2000/svg" width="900" height="900" viewBox="0 0 900 900" fill="none">
  <defs>
    <linearGradient id="gift" x1="0" y1="0" x2="1" y2="1">
      <stop offset="0%" stop-color="#f3d6c1"/>
      <stop offset="100%" stop-color="#c28b71"/>
    </linearGradient>
  </defs>
  <rect width="900" height="900" rx="60" fill="#f4ebe4"/>
  <rect x="220" y="220" width="460" height="420" rx="50" fill="#fff"/>
  <path d="M220 420H680" stroke="#c28b71" stroke-width="40" stroke-linecap="round"/>
  <path d="M450 220V640" stroke="#c28b71" stroke-width="40" stroke-linecap="round"/>
  <path d="M340 250C330 250 320 260 320 270C320 290 360 310 420 350C440 365 470 380 500 380C530 380 560 365 580 350C640 310 680 290 680 270C680 260 670 250 660 250C640 250 620 265 600 285C580 305 560 330 520 330C480 330 460 305 440 285C420 265 400 250 380 250C360 250 340 250 340 250Z" fill="url(#gift)"/>
  <text x="90" y="820" font-family="Inter, sans-serif" font-size="60" font-weight="700" fill="#7c5e34">Combo quà</text>
</svg>
